REM MD5 166acdb68069c504750d4db6d8f26b48
FILE "Youkai Hana Asobi (Japan).bin" BINARY
  TRACK 01 MODE2/2352
    INDEX 01 00:00:00
  TRACK 02 AUDIO
    INDEX 00 02:59:72
    INDEX 01 03:01:72
  TRACK 03 AUDIO
    INDEX 00 05:41:02
    INDEX 01 05:43:02
  TRACK 04 AUDIO
    INDEX 00 08:13:03
    INDEX 01 08:15:03
  TRACK 05 AUDIO
    INDEX 00 10:45:04
    INDEX 01 10:47:04
REM LEADOUT 13:47:04
